<svg xmlns="http://www.w3.org/2000/svg" xmlns:xlink="http://www.w3.org/1999/xlink" id="processonSvg1000" viewBox="62.5 176.0 994.5 1039.0" width="994.5" height="1039.0"><defs id="ProcessOnDefs1001"><marker id="ProcessOnMarker1044" markerUnits="userSpaceOnUse" orient="auto" markerWidth="16.23606797749979" markerHeight="10.550836550532098" viewBox="-1.0 -1.3763819204711736 16.23606797749979 10.550836550532098" refX="-1.0" refY="3.8990363547948754"><path id="ProcessOnPath1045" d="M12.0 3.8990363547948754L0.0 7.798072709589751V0.0Z" stroke="#323232" stroke-width="2.0" fill="#fff" transform="matrix(1.0,0.0,0.0,1.0,0.0,0.0)"/></marker><marker id="ProcessOnMarker1052" markerUnits="userSpaceOnUse" orient="auto" markerWidth="16.23606797749979" markerHeight="10.550836550532098" viewBox="-1.0 -1.3763819204711736 16.23606797749979 10.550836550532098" refX="-1.0" refY="3.8990363547948754"><path id="ProcessOnPath1053" d="M12.0 3.8990363547948754L0.0 7.798072709589751V0.0Z" stroke="#323232" stroke-width="2.0" fill="#fff" transform="matrix(1.0,0.0,0.0,1.0,0.0,0.0)"/></marker><marker id="ProcessOnMarker1060" markerUnits="userSpaceOnUse" orient="auto" markerWidth="16.23606797749979" markerHeight="10.550836550532098" viewBox="-1.0 -1.3763819204711736 16.23606797749979 10.550836550532098" refX="-1.0" refY="3.8990363547948754"><path id="ProcessOnPath1061" d="M12.0 3.8990363547948754L0.0 7.798072709589751V0.0Z" stroke="#323232" stroke-width="2.0" fill="#fff" transform="matrix(1.0,0.0,0.0,1.0,0.0,0.0)"/></marker><marker id="ProcessOnMarker1072" markerUnits="userSpaceOnUse" orient="auto" markerWidth="16.23606797749979" markerHeight="10.550836550532098" viewBox="-1.0 -1.3763819204711736 16.23606797749979 10.550836550532098" refX="-1.0" refY="3.8990363547948754"><path id="ProcessOnPath1073" d="M12.0 3.8990363547948754L0.0 7.798072709589751V0.0Z" stroke="#323232" stroke-width="2.0" fill="#fff" transform="matrix(1.0,0.0,0.0,1.0,0.0,0.0)"/></marker><marker id="ProcessOnMarker1080" markerUnits="userSpaceOnUse" orient="auto" markerWidth="16.23606797749979" markerHeight="10.550836550532098" viewBox="-1.0 -1.3763819204711736 16.23606797749979 10.550836550532098" refX="15.23606797749979" refY="3.8990363547948754"><path id="ProcessOnPath1081" d="M12.0 3.8990363547948754L0.0 7.798072709589751V0.0Z" stroke="#323232" stroke-width="2.0" fill="#fff" transform="matrix(-1.0,1.2246467991473532E-16,-1.2246467991473532E-16,-1.0,14.23606797749979,7.798072709589751)"/></marker><pattern id="ProcessOnPattern1088" patternUnits="userSpaceOnUse" width="20.0" height="20.0"><image id="ProcessOnImage1089" xlink:href="https://cdn2.iconfinder.com/data/icons/integers/60/number-one-128.png" width="20.0" height="20.0" transform="matrix(1.0,0.0,0.0,1.0,0.0,0.0)"/></pattern><pattern id="ProcessOnPattern1092" patternUnits="userSpaceOnUse" width="20.0" height="20.0"><image id="ProcessOnImage1093" xlink:href="https://cdn2.iconfinder.com/data/icons/integers/60/number-two-128.png" width="20.0" height="20.0" transform="matrix(1.0,0.0,0.0,1.0,0.0,0.0)"/></pattern><pattern id="ProcessOnPattern1096" patternUnits="userSpaceOnUse" width="20.0" height="20.0"><image id="ProcessOnImage1097" xlink:href="https://cdn2.iconfinder.com/data/icons/integers/60/number-three-128.png" width="20.0" height="20.0" transform="matrix(1.0,0.0,0.0,1.0,0.0,0.0)"/></pattern><pattern id="ProcessOnPattern1100" patternUnits="userSpaceOnUse" width="20.0" height="20.0"><image id="ProcessOnImage1101" xlink:href="https://cdn2.iconfinder.com/data/icons/integers/60/number-four-128.png" width="20.0" height="20.0" transform="matrix(1.0,0.0,0.0,1.0,0.0,0.0)"/></pattern><pattern id="ProcessOnPattern1104" patternUnits="userSpaceOnUse" width="20.0" height="20.0"><image id="ProcessOnImage1105" xlink:href="https://cdn2.iconfinder.com/data/icons/integers/60/number-five-128.png" width="20.0" height="20.0" transform="matrix(1.0,0.0,0.0,1.0,0.0,0.0)"/></pattern></defs><g id="ProcessOnG1002"><path id="ProcessOnPath1003" d="M62.5 176.0H1057.0V1215.0H62.5V176.0Z" fill="none"/><g id="ProcessOnG1004"><g id="ProcessOnG1005" transform="matrix(1.0,0.0,0.0,1.0,218.0,312.0)" opacity="1.0"><path id="ProcessOnPath1006" d="M0.0 0.0L620.0 0.0L620.0 45.0L0.0 45.0Z" stroke="#323232" stroke-width="2.0" stroke-dasharray="none" opacity="1.0" fill="#ffcccc"/><g id="ProcessOnG1007" transform="matrix(1.0,0.0,0.0,1.0,10.0,11.875)"><text id="ProcessOnText1008" fill="#000000" font-weight="bold" font-style="normal" text-decoration="none" font-family="微软雅黑" text-anchor="middle" font-size="17" x="299.0" y="17.425">Registry</text></g></g><g id="ProcessOnG1009" transform="matrix(1.0,0.0,0.0,1.0,218.0,369.0)" opacity="1.0"><path id="ProcessOnPath1010" d="M0.0 0.0L620.0 0.0L620.0 73.0L0.0 73.0Z" stroke="#323232" stroke-width="2.0" stroke-dasharray="2.0 3.0" opacity="1.0" fill="#cce5ff"/><g id="ProcessOnG1011" transform="matrix(1.0,0.0,0.0,1.0,10.0,12.75)"><text id="ProcessOnText1012" fill="#000000" font-weight="bold" font-style="normal" text-decoration="none" font-family="微软雅黑" text-anchor="middle" font-size="19" x="299.0" y="19.475">Mesos</text><text id="ProcessOnText1013" fill="#000000" font-weight="bold" font-style="normal" text-decoration="none" font-family="微软雅黑" text-anchor="middle" font-size="19" x="299.0" y="43.225">master</text></g></g><g id="ProcessOnG1014" transform="matrix(1.0,0.0,0.0,1.0,218.0,253.0)" opacity="1.0"><path id="ProcessOnPath1015" d="M0.0 0.0L620.0 0.0L620.0 49.0L0.0 49.0Z" stroke="#323232" stroke-width="2.0" stroke-dasharray="none" opacity="1.0" fill="#ffffff"/><g id="ProcessOnG1016" transform="matrix(1.0,0.0,0.0,1.0,10.0,14.5)"><text id="ProcessOnText1017" fill="#000000" font-weight="bold" font-style="normal" text-decoration="none" font-family="微软雅黑" text-anchor="middle" font-size="16" x="299.0" y="16.4">Scheduler</text></g></g><g id="ProcessOnG1018" transform="matrix(1.0,0.0,0.0,1.0,228.1236559139785,727.5)" opacity="1.0"><path id="ProcessOnPath1019" d="M0.0 0.0L622.0 0.0L622.0 248.5L0.0 248.5Z" stroke="#323232" stroke-width="2.0" stroke-dasharray="2.0 3.0" opacity="1.0" fill="#ffffff"/></g><g id="ProcessOnG1020" transform="matrix(1.0,0.0,0.0,1.0,293.33333333333337,782.0771028037383)" opacity="1.0"><path id="ProcessOnPath1021" d="M0.0 0.0L498.26881720430106 0.0L498.26881720430106 173.0210280373832L0.0 173.0210280373832Z" stroke="#323232" stroke-width="2.0" stroke-dasharray="2.0 3.0" opacity="1.0" fill="#ccccff"/></g><g id="ProcessOnG1022" transform="matrix(1.0,0.0,0.0,1.0,400.34408602150546,845.9439252336449)" opacity="1.0"><path id="ProcessOnPath1023" d="M0.0 71.12441588785046L0.0 0.0L334.4086021505376 0.0L334.4086021505376 71.12441588785046Q250.8064516129032 50.80315420560748 167.2043010752688 71.12441588785046Q83.6021505376344 91.44567757009347 0.0 71.12441588785046Z" stroke="#323232" stroke-width="2.0" stroke-dasharray="2.0 3.0" opacity="1.0" fill="#ffe6cc"/><g id="ProcessOnG1024" transform="matrix(1.0,0.0,0.0,1.0,0.0,26.578271028037385)"><text id="ProcessOnText1025" fill="#000000" font-weight="normal" font-style="normal" text-decoration="none" font-family="微软雅黑" text-anchor="middle" font-size="16" x="166.2043010752688" y="16.4">Task (s)</text></g></g><g id="ProcessOnG1026" transform="matrix(1.0,0.0,0.0,1.0,375.26344086021504,856.394859813084)" opacity="1.0"><path id="ProcessOnPath1027" d="M0.0 71.12441588785046L0.0 0.0L334.4086021505376 0.0L334.4086021505376 71.12441588785046Q250.8064516129032 50.80315420560748 167.2043010752688 71.12441588785046Q83.6021505376344 91.44567757009347 0.0 71.12441588785046Z" stroke="#323232" stroke-width="2.0" stroke-dasharray="2.0 3.0" opacity="1.0" fill="#ffe6cc"/><g id="ProcessOnG1028" transform="matrix(1.0,0.0,0.0,1.0,0.0,26.578271028037385)"><text id="ProcessOnText1029" fill="#000000" font-weight="normal" font-style="normal" text-decoration="none" font-family="微软雅黑" text-anchor="middle" font-size="16" x="166.2043010752688" y="16.4">Task (s)</text></g></g><g id="ProcessOnG1030" transform="matrix(1.0,0.0,0.0,1.0,346.8387096774194,866.8457943925234)" opacity="1.0"><path id="ProcessOnPath1031" d="M0.0 71.12441588785046L0.0 0.0L334.4086021505376 0.0L334.4086021505376 71.12441588785046Q250.8064516129032 50.80315420560748 167.2043010752688 71.12441588785046Q83.6021505376344 91.44567757009347 0.0 71.12441588785046Z" stroke="#323232" stroke-width="2.0" stroke-dasharray="2.0 3.0" opacity="1.0" fill="#ffe6cc"/><g id="ProcessOnG1032" transform="matrix(1.0,0.0,0.0,1.0,0.0,26.578271028037385)"><text id="ProcessOnText1033" fill="#000000" font-weight="bold" font-style="normal" text-decoration="none" font-family="微软雅黑" text-anchor="middle" font-size="16" x="166.2043010752688" y="16.4">Task (s)</text></g></g><g id="ProcessOnG1034" transform="matrix(1.0,0.0,0.0,1.0,271.5967741935483,790.2056074766355)" opacity="1.0"><path id="ProcessOnPath1035" d="M0.0 0.0L535.0537634408603 0.0L535.0537634408603 46.44859813084112L0.0 46.44859813084112Z" stroke="#323232" stroke-width="0.0" stroke-dasharray="0.0 0.0" opacity="1.0" fill="none"/><g id="ProcessOnG1036" transform="matrix(1.0,0.0,0.0,1.0,0.0,13.22429906542056)"><text id="ProcessOnText1037" fill="#000000" font-weight="bold" font-style="normal" text-decoration="none" font-family="微软雅黑" text-anchor="middle" font-size="16" x="266.52688172043014" y="16.4">Executor</text></g></g><g id="ProcessOnG1038" transform="matrix(1.0,0.0,0.0,1.0,271.5967741935483,730.9836448598131)" opacity="1.0"><path id="ProcessOnPath1039" d="M0.0 0.0L535.0537634408603 0.0L535.0537634408603 46.44859813084112L0.0 46.44859813084112Z" stroke="#323232" stroke-width="0.0" stroke-dasharray="0.0 0.0" opacity="1.0" fill="none"/><g id="ProcessOnG1040" transform="matrix(1.0,0.0,0.0,1.0,0.0,13.22429906542056)"><text id="ProcessOnText1041" fill="#000000" font-weight="bold" font-style="normal" text-decoration="none" font-family="微软雅黑" text-anchor="middle" font-size="16" x="266.52688172043014" y="16.4">New Mesos Agent</text></g></g><g id="ProcessOnG1042"><path id="ProcessOnPath1043" d="M249.0 728.0L517.360766852498 452.906167312493" stroke="#323232" stroke-width="2.0" stroke-dasharray="2.0 3.0" fill="none" marker-end="url(#ProcessOnMarker1044)"/></g><g id="ProcessOnG1046" transform="matrix(0.6946583704589966,-0.7193398003386517,0.7193398003386517,0.6946583704589966,245.25614324675598,682.9745039914637)" opacity="1.0"><path id="ProcessOnPath1047" d="M0.0 0.0L160.0 0.0L160.0 40.0L0.0 40.0Z" stroke="#323232" stroke-width="0.0" stroke-dasharray="none" opacity="1.0" fill="none"/><g id="ProcessOnG1048" transform="matrix(1.0,0.0,0.0,1.0,0.0,11.875)"><text id="ProcessOnText1049" fill="#000000" font-weight="normal" font-style="normal" text-decoration="none" font-family="微软雅黑" text-anchor="middle" font-size="13" x="79.0" y="13.325">发送 Register 请求注册</text></g></g><g id="ProcessOnG1050"><path id="ProcessOnPath1051" d="M218.0 405.5L185.0 405.5L185.0 334.5L202.7639320225002 334.5" stroke="#323232" stroke-width="2.0" stroke-dasharray="2.0 3.0" fill="none" marker-end="url(#ProcessOnMarker1052)"/></g><g id="ProcessOnG1054" transform="matrix(-1.8369701987210297E-16,-1.0,1.0,-1.8369701987210297E-16,142.5,404.5)" opacity="1.0"><path id="ProcessOnPath1055" d="M0.0 0.0L160.0 0.0L160.0 40.0L0.0 40.0Z" stroke="#323232" stroke-width="0.0" stroke-dasharray="none" opacity="1.0" fill="none"/><g id="ProcessOnG1056" transform="matrix(1.0,0.0,0.0,1.0,0.0,11.875)"><text id="ProcessOnText1057" fill="#000000" font-weight="normal" font-style="normal" text-decoration="none" font-family="微软雅黑" text-anchor="middle" font-size="13" x="79.0" y="13.325">保存 agent 信息到 registry</text></g></g><g id="ProcessOnG1058"><path id="ProcessOnPath1059" d="M628.0 442.0L393.89878646819176 715.9176084562756" stroke="#323232" stroke-width="2.0" stroke-dasharray="2.0 3.0" fill="none" marker-end="url(#ProcessOnMarker1060)"/></g><g id="ProcessOnG1062" transform="matrix(0.6427876096865393,-0.7660444431189781,0.7660444431189781,0.6427876096865393,367.8399208426046,704.0825340154206)" opacity="1.0"><path id="ProcessOnPath1063" d="M0.0 0.0L264.0 0.0L264.0 25.0L0.0 25.0Z" stroke="#323232" stroke-width="0.0" stroke-dasharray="none" opacity="1.0" fill="none"/><g id="ProcessOnG1064" transform="matrix(1.0,0.0,0.0,1.0,0.0,4.375)"><text id="ProcessOnText1065" fill="#000000" font-weight="normal" font-style="normal" text-decoration="none" font-family="微软雅黑" text-anchor="middle" font-size="13" x="131.0" y="13.325">反馈 Registered 消息，成功加入集群</text></g></g><g id="ProcessOnG1066" transform="matrix(1.0,0.0,0.0,1.0,218.0,196.0)" opacity="1.0"><path id="ProcessOnPath1067" d="M0.0 0.0L620.0 0.0L620.0 49.0L0.0 49.0Z" stroke="#323232" stroke-width="2.0" stroke-dasharray="none" opacity="1.0" fill="#99ccff"/><g id="ProcessOnG1068" transform="matrix(1.0,0.0,0.0,1.0,10.0,13.875)"><text id="ProcessOnText1069" fill="#000000" font-weight="bold" font-style="normal" text-decoration="none" font-family="微软雅黑" text-anchor="middle" font-size="17" x="299.0" y="17.425">ZooKeeper quorum</text></g></g><g id="ProcessOnG1070"><path id="ProcessOnPath1071" d="M838.0 405.5L881.0 405.5L881.0 277.5L853.2360679774998 277.5" stroke="#323232" stroke-width="2.0" stroke-dasharray="2.0 3.0" fill="none" marker-end="url(#ProcessOnMarker1072)"/></g><g id="ProcessOnG1074" transform="matrix(-1.8369701987210297E-16,-1.0,1.0,-1.8369701987210297E-16,884.5,433.5000000000001)" opacity="1.0"><path id="ProcessOnPath1075" d="M0.0 0.0L266.0 0.0L266.0 39.0L0.0 39.0Z" stroke="#323232" stroke-width="0.0" stroke-dasharray="none" opacity="1.0" fill="none"/><g id="ProcessOnG1076" transform="matrix(1.0,0.0,0.0,1.0,0.0,11.375)"><text id="ProcessOnText1077" fill="#000000" font-weight="normal" font-style="normal" text-decoration="none" font-family="微软雅黑" text-anchor="middle" font-size="13" x="132.0" y="13.325">向 Scheduler 提供该 Agent 的资源</text></g></g><g id="ProcessOnG1078"><path id="ProcessOnPath1079" d="M739.6576171698013 454.0356823848506L527.0 728.0" stroke="#323232" stroke-width="2.0" stroke-dasharray="2.0 3.0" fill="none" marker-start="url(#ProcessOnMarker1080)"/></g><g id="ProcessOnG1082" transform="matrix(0.6156614753256571,-0.7880107536067229,0.7880107536067229,0.6156614753256571,516.2394537186377,700.3970020311638)" opacity="1.0"><path id="ProcessOnPath1083" d="M0.0 0.0L323.0 0.0L323.0 20.0L0.0 20.0Z" stroke="#323232" stroke-width="0.0" stroke-dasharray="none" opacity="1.0" fill="none"/><g id="ProcessOnG1084" transform="matrix(1.0,0.0,0.0,1.0,0.0,1.875)"><text id="ProcessOnText1085" fill="#000000" font-weight="normal" font-style="normal" text-decoration="none" font-family="微软雅黑" text-anchor="middle" font-size="13" x="160.5" y="13.325">Agent 进程实时监控机器资源并向将其暴露给 Mesos</text></g></g><g id="ProcessOnG1086" transform="matrix(0.6946583704589966,-0.7193398003386517,0.7193398003386517,0.6946583704589966,242.8600182920235,700.2468142987966)" opacity="1.0"><path id="ProcessOnPath1087" d="M0.0 0.0L20.0 0.0L20.0 20.0L0.0 20.0Z" stroke="#323232" stroke-width="0.0" stroke-dasharray="none" opacity="1.0" fill="url(#ProcessOnPattern1088)"/></g><g id="ProcessOnG1090" transform="matrix(-1.8369701987210297E-16,-1.0,1.0,-1.8369701987210297E-16,151.50000000000003,425.5)" opacity="1.0"><path id="ProcessOnPath1091" d="M0.0 0.0L20.0 0.0L20.0 20.0L0.0 20.0Z" stroke="#323232" stroke-width="0.0" stroke-dasharray="none" opacity="1.0" fill="url(#ProcessOnPattern1092)"/></g><g id="ProcessOnG1094" transform="matrix(0.6427876096865393,-0.7660444431189781,0.7660444431189781,0.6427876096865393,368.9116794719448,706.2325683343244)" opacity="1.0"><path id="ProcessOnPath1095" d="M0.0 0.0L20.0 0.0L20.0 20.0L0.0 20.0Z" stroke="#323232" stroke-width="0.0" stroke-dasharray="none" opacity="1.0" fill="url(#ProcessOnPattern1096)"/></g><g id="ProcessOnG1098" transform="matrix(0.6156614753256571,-0.7880107536067229,0.7880107536067229,0.6156614753256571,506.9632777106762,709.7234927828107)" opacity="1.0"><path id="ProcessOnPath1099" d="M0.0 0.0L20.0 0.0L20.0 20.0L0.0 20.0Z" stroke="#323232" stroke-width="0.0" stroke-dasharray="none" opacity="1.0" fill="url(#ProcessOnPattern1100)"/></g><g id="ProcessOnG1102" transform="matrix(-1.8369701987210297E-16,-1.0,1.0,-1.8369701987210297E-16,896.0,425.5)" opacity="1.0"><path id="ProcessOnPath1103" d="M0.0 0.0L20.0 0.0L20.0 20.0L0.0 20.0Z" stroke="#323232" stroke-width="0.0" stroke-dasharray="none" opacity="1.0" fill="url(#ProcessOnPattern1104)"/></g><g id="ProcessOnG1106" transform="matrix(1.0,0.0,0.0,1.0,151.50000000000003,999.0)" opacity="1.0"><path id="ProcessOnPath1107" d="M0.0 0.0L759.0 0.0L759.0 196.0L0.0 196.0Z" stroke="#323232" stroke-width="0.0" stroke-dasharray="none" opacity="1.0" fill="none"/><g id="ProcessOnG1108" transform="matrix(1.0,0.0,0.0,1.0,0.0,24.875)"><text id="ProcessOnText1109" fill="#000000" font-weight="normal" font-style="normal" text-decoration="none" font-family="微软雅黑" text-anchor="start" font-size="13" x="0.0" y="13.325">1.  新的 Mesos agent 发送 Register 消息到 Mesos master 请求注册</text><text id="ProcessOnText1110" fill="#000000" font-weight="normal" font-style="normal" text-decoration="none" font-family="微软雅黑" text-anchor="start" font-size="13" x="0.0" y="29.575"></text><text id="ProcessOnText1111" fill="#000000" font-weight="normal" font-style="normal" text-decoration="none" font-family="微软雅黑" text-anchor="start" font-size="13" x="0.0" y="45.825">2.  保存 agent 的注册信息到 registry（所有 master 都维护一份 registry）</text><text id="ProcessOnText1112" fill="#000000" font-weight="normal" font-style="normal" text-decoration="none" font-family="微软雅黑" text-anchor="start" font-size="13" x="0.0" y="62.075"></text><text id="ProcessOnText1113" fill="#000000" font-weight="normal" font-style="normal" text-decoration="none" font-family="微软雅黑" text-anchor="start" font-size="13" x="0.0" y="78.325">3.  向 agent 反馈 Registered 消息，告知其已成功加入集群</text><text id="ProcessOnText1114" fill="#000000" font-weight="normal" font-style="normal" text-decoration="none" font-family="微软雅黑" text-anchor="start" font-size="13" x="0.0" y="94.575"></text><text id="ProcessOnText1115" fill="#000000" font-weight="normal" font-style="normal" text-decoration="none" font-family="微软雅黑" text-anchor="start" font-size="13" x="0.0" y="110.825">4.  agent 进程会自动实时监控机器上的资源（CPU、内存和硬盘，或自定义资源），并将资源暴露给 Mesos，附带心跳检测</text><text id="ProcessOnText1116" fill="#000000" font-weight="normal" font-style="normal" text-decoration="none" font-family="微软雅黑" text-anchor="start" font-size="13" x="0.0" y="127.075"></text><text id="ProcessOnText1117" fill="#000000" font-weight="normal" font-style="normal" text-decoration="none" font-family="微软雅黑" text-anchor="start" font-size="13" x="0.0" y="143.325">5.  Mesos 向 Scheduler 提供该 agent 的资源，让其可以调度任务</text></g></g><g id="ProcessOnG1118" transform="matrix(1.0,0.0,0.0,1.0,812.1505376344086,1167.0)" opacity="1.0"><path id="ProcessOnPath1119" d="M0.0 0.0L103.84946236559142 0.0L103.84946236559142 25.0L0.0 25.0Z" stroke="#323232" stroke-width="0.0" stroke-dasharray="none" opacity="1.0" fill="none"/><g id="ProcessOnG1120" transform="matrix(1.0,0.0,0.0,1.0,0.0,4.375)"><text id="ProcessOnText1121" fill="#000000" font-weight="normal" font-style="normal" text-decoration="none" font-family="微软雅黑" text-anchor="middle" font-size="13" x="50.92473118279571" y="13.325">Tangjiaxing</text></g></g></g></g></svg>