<svg xmlns="http://www.w3.org/2000/svg" xmlns:xlink="http://www.w3.org/1999/xlink" id="processonSvg1000" viewBox="74.375 88.0 996.4771505376343 866.0" width="996.4771505376343" height="866.0"><defs id="ProcessOnDefs1001"><marker id="ProcessOnMarker1044" markerUnits="userSpaceOnUse" orient="auto" markerWidth="16.23606797749979" markerHeight="10.550836550532098" viewBox="-1.0 -1.3763819204711736 16.23606797749979 10.550836550532098" refX="15.23606797749979" refY="3.8990363547948754"><path id="ProcessOnPath1045" d="M12.0 3.8990363547948754L0.0 7.798072709589751V0.0Z" stroke="#323232" stroke-width="2.0" fill="#fff" transform="matrix(-1.0,1.2246467991473532E-16,-1.2246467991473532E-16,-1.0,14.23606797749979,7.798072709589751)"/></marker><marker id="ProcessOnMarker1052" markerUnits="userSpaceOnUse" orient="auto" markerWidth="16.23606797749979" markerHeight="10.550836550532098" viewBox="-1.0 -1.3763819204711736 16.23606797749979 10.550836550532098" refX="-1.0" refY="3.8990363547948754"><path id="ProcessOnPath1053" d="M12.0 3.8990363547948754L0.0 7.798072709589751V0.0Z" stroke="#323232" stroke-width="2.0" fill="#fff" transform="matrix(1.0,0.0,0.0,1.0,0.0,0.0)"/></marker><marker id="ProcessOnMarker1061" markerUnits="userSpaceOnUse" orient="auto" markerWidth="16.23606797749979" markerHeight="10.550836550532098" viewBox="-1.0 -1.3763819204711736 16.23606797749979 10.550836550532098" refX="15.23606797749979" refY="3.8990363547948754"><path id="ProcessOnPath1062" d="M12.0 3.8990363547948754L0.0 7.798072709589751V0.0Z" stroke="#ccccff" stroke-width="2.0" fill="#fff" transform="matrix(-1.0,1.2246467991473532E-16,-1.2246467991473532E-16,-1.0,14.23606797749979,7.798072709589751)"/></marker><marker id="ProcessOnMarker1063" markerUnits="userSpaceOnUse" orient="auto" markerWidth="16.23606797749979" markerHeight="10.550836550532098" viewBox="-1.0 -1.3763819204711736 16.23606797749979 10.550836550532098" refX="-1.0" refY="3.8990363547948754"><path id="ProcessOnPath1064" d="M12.0 3.8990363547948754L0.0 7.798072709589751V0.0Z" stroke="#ccccff" stroke-width="2.0" fill="#fff" transform="matrix(1.0,0.0,0.0,1.0,0.0,0.0)"/></marker><marker id="ProcessOnMarker1075" markerUnits="userSpaceOnUse" orient="auto" markerWidth="16.23606797749979" markerHeight="10.550836550532098" viewBox="-1.0 -1.3763819204711736 16.23606797749979 10.550836550532098" refX="-1.0" refY="3.8990363547948754"><path id="ProcessOnPath1076" d="M12.0 3.8990363547948754L0.0 7.798072709589751V0.0Z" stroke="#323232" stroke-width="2.0" fill="#fff" transform="matrix(1.0,0.0,0.0,1.0,0.0,0.0)"/></marker><marker id="ProcessOnMarker1084" markerUnits="userSpaceOnUse" orient="auto" markerWidth="16.23606797749979" markerHeight="10.550836550532098" viewBox="-1.0 -1.3763819204711736 16.23606797749979 10.550836550532098" refX="15.23606797749979" refY="3.8990363547948754"><path id="ProcessOnPath1085" d="M12.0 3.8990363547948754L0.0 7.798072709589751V0.0Z" stroke="#323232" stroke-width="2.0" fill="#fff" transform="matrix(-1.0,1.2246467991473532E-16,-1.2246467991473532E-16,-1.0,14.23606797749979,7.798072709589751)"/></marker><pattern id="ProcessOnPattern1092" patternUnits="userSpaceOnUse" width="20.0" height="20.0"><image id="ProcessOnImage1093" xlink:href="https://cdn2.iconfinder.com/data/icons/integers/60/number-one-128.png" width="20.0" height="20.0" transform="matrix(1.0,0.0,0.0,1.0,0.0,0.0)"/></pattern><pattern id="ProcessOnPattern1096" patternUnits="userSpaceOnUse" width="20.0" height="20.0"><image id="ProcessOnImage1097" xlink:href="https://cdn2.iconfinder.com/data/icons/integers/60/number-two-128.png" width="20.0" height="20.0" transform="matrix(1.0,0.0,0.0,1.0,0.0,0.0)"/></pattern><pattern id="ProcessOnPattern1100" patternUnits="userSpaceOnUse" width="20.0" height="20.0"><image id="ProcessOnImage1101" xlink:href="https://cdn2.iconfinder.com/data/icons/integers/60/number-four-128.png" width="20.0" height="20.0" transform="matrix(1.0,0.0,0.0,1.0,0.0,0.0)"/></pattern><pattern id="ProcessOnPattern1108" patternUnits="userSpaceOnUse" width="20.0" height="20.0"><image id="ProcessOnImage1109" xlink:href="https://cdn2.iconfinder.com/data/icons/integers/60/number-three-128.png" width="20.0" height="20.0" transform="matrix(1.0,0.0,0.0,1.0,0.0,0.0)"/></pattern><marker id="ProcessOnMarker1112" markerUnits="userSpaceOnUse" orient="auto" markerWidth="16.23606797749979" markerHeight="10.550836550532098" viewBox="-1.0 -1.3763819204711736 16.23606797749979 10.550836550532098" refX="-1.0" refY="3.8990363547948754"><path id="ProcessOnPath1113" d="M12.0 3.8990363547948754L0.0 7.798072709589751V0.0Z" stroke="#323232" stroke-width="2.0" fill="#fff" transform="matrix(1.0,0.0,0.0,1.0,0.0,0.0)"/></marker><pattern id="ProcessOnPattern1116" patternUnits="userSpaceOnUse" width="20.0" height="20.0"><image id="ProcessOnImage1117" xlink:href="https://cdn2.iconfinder.com/data/icons/integers/60/number-five-128.png" width="20.0" height="20.0" transform="matrix(1.0,0.0,0.0,1.0,0.0,0.0)"/></pattern><marker id="ProcessOnMarker1124" markerUnits="userSpaceOnUse" orient="auto" markerWidth="16.23606797749979" markerHeight="10.550836550532098" viewBox="-1.0 -1.3763819204711736 16.23606797749979 10.550836550532098" refX="15.23606797749979" refY="3.8990363547948754"><path id="ProcessOnPath1125" d="M12.0 3.8990363547948754L0.0 7.798072709589751V0.0Z" stroke="#323232" stroke-width="2.0" fill="#fff" transform="matrix(-1.0,1.2246467991473532E-16,-1.2246467991473532E-16,-1.0,14.23606797749979,7.798072709589751)"/></marker><pattern id="ProcessOnPattern1128" patternUnits="userSpaceOnUse" width="20.0" height="20.0"><image id="ProcessOnImage1129" xlink:href="https://cdn2.iconfinder.com/data/icons/integers/60/number-six-128.png" width="20.0" height="20.0" transform="matrix(1.0,0.0,0.0,1.0,0.0,0.0)"/></pattern></defs><g id="ProcessOnG1002"><path id="ProcessOnPath1003" d="M74.375 88.0H1070.8521505376343V954.0H74.375V88.0Z" fill="none"/><g id="ProcessOnG1004"><g id="ProcessOnG1005" transform="matrix(1.0,0.0,0.0,1.0,253.75,224.0)" opacity="1.0"><path id="ProcessOnPath1006" d="M0.0 0.0L620.0 0.0L620.0 45.0L0.0 45.0Z" stroke="#323232" stroke-width="2.0" stroke-dasharray="none" opacity="1.0" fill="#ffcccc"/><g id="ProcessOnG1007" transform="matrix(1.0,0.0,0.0,1.0,10.0,11.875)"><text id="ProcessOnText1008" fill="#000000" font-weight="bold" font-style="normal" text-decoration="none" font-family="微软雅黑" text-anchor="middle" font-size="17" x="299.0" y="17.425">Registry</text></g></g><g id="ProcessOnG1009" transform="matrix(1.0,0.0,0.0,1.0,253.75,281.0)" opacity="1.0"><path id="ProcessOnPath1010" d="M0.0 0.0L620.0 0.0L620.0 73.0L0.0 73.0Z" stroke="#323232" stroke-width="2.0" stroke-dasharray="2.0 3.0" opacity="1.0" fill="#cce5ff"/><g id="ProcessOnG1011" transform="matrix(1.0,0.0,0.0,1.0,10.0,12.75)"><text id="ProcessOnText1012" fill="#000000" font-weight="bold" font-style="normal" text-decoration="none" font-family="微软雅黑" text-anchor="middle" font-size="19" x="299.0" y="19.475">Mesos</text><text id="ProcessOnText1013" fill="#000000" font-weight="bold" font-style="normal" text-decoration="none" font-family="微软雅黑" text-anchor="middle" font-size="19" x="299.0" y="43.225">master</text></g></g><g id="ProcessOnG1014" transform="matrix(1.0,0.0,0.0,1.0,253.75,165.0)" opacity="1.0"><path id="ProcessOnPath1015" d="M0.0 0.0L620.0 0.0L620.0 49.0L0.0 49.0Z" stroke="#323232" stroke-width="2.0" stroke-dasharray="none" opacity="1.0" fill="#ffffff"/><g id="ProcessOnG1016" transform="matrix(1.0,0.0,0.0,1.0,10.0,14.5)"><text id="ProcessOnText1017" fill="#000000" font-weight="bold" font-style="normal" text-decoration="none" font-family="微软雅黑" text-anchor="middle" font-size="16" x="299.0" y="16.4">Scheduler</text></g></g><g id="ProcessOnG1018" transform="matrix(1.0,0.0,0.0,1.0,263.8736559139785,639.5)" opacity="1.0"><path id="ProcessOnPath1019" d="M0.0 0.0L622.0 0.0L622.0 248.5L0.0 248.5Z" stroke="#323232" stroke-width="2.0" stroke-dasharray="2.0 3.0" opacity="1.0" fill="#ffffff"/></g><g id="ProcessOnG1020" transform="matrix(1.0,0.0,0.0,1.0,329.08333333333337,694.0771028037383)" opacity="1.0"><path id="ProcessOnPath1021" d="M0.0 0.0L498.26881720430106 0.0L498.26881720430106 173.0210280373832L0.0 173.0210280373832Z" stroke="#323232" stroke-width="2.0" stroke-dasharray="2.0 3.0" opacity="1.0" fill="#ccccff"/></g><g id="ProcessOnG1022" transform="matrix(1.0,0.0,0.0,1.0,436.0940860215055,757.9439252336449)" opacity="1.0"><path id="ProcessOnPath1023" d="M0.0 71.12441588785046L0.0 0.0L334.4086021505376 0.0L334.4086021505376 71.12441588785046Q250.8064516129032 50.80315420560748 167.2043010752688 71.12441588785046Q83.6021505376344 91.44567757009347 0.0 71.12441588785046Z" stroke="#323232" stroke-width="2.0" stroke-dasharray="2.0 3.0" opacity="1.0" fill="#ffe6cc"/><g id="ProcessOnG1024" transform="matrix(1.0,0.0,0.0,1.0,0.0,26.578271028037385)"><text id="ProcessOnText1025" fill="#000000" font-weight="normal" font-style="normal" text-decoration="none" font-family="微软雅黑" text-anchor="middle" font-size="16" x="166.2043010752688" y="16.4">Task (s)</text></g></g><g id="ProcessOnG1026" transform="matrix(1.0,0.0,0.0,1.0,411.01344086021504,768.394859813084)" opacity="1.0"><path id="ProcessOnPath1027" d="M0.0 71.12441588785046L0.0 0.0L334.4086021505376 0.0L334.4086021505376 71.12441588785046Q250.8064516129032 50.80315420560748 167.2043010752688 71.12441588785046Q83.6021505376344 91.44567757009347 0.0 71.12441588785046Z" stroke="#323232" stroke-width="2.0" stroke-dasharray="2.0 3.0" opacity="1.0" fill="#ffe6cc"/><g id="ProcessOnG1028" transform="matrix(1.0,0.0,0.0,1.0,0.0,26.578271028037385)"><text id="ProcessOnText1029" fill="#000000" font-weight="normal" font-style="normal" text-decoration="none" font-family="微软雅黑" text-anchor="middle" font-size="16" x="166.2043010752688" y="16.4">Task (s)</text></g></g><g id="ProcessOnG1030" transform="matrix(1.0,0.0,0.0,1.0,382.5887096774194,778.8457943925234)" opacity="1.0"><path id="ProcessOnPath1031" d="M0.0 71.12441588785046L0.0 0.0L334.4086021505376 0.0L334.4086021505376 71.12441588785046Q250.8064516129032 50.80315420560748 167.2043010752688 71.12441588785046Q83.6021505376344 91.44567757009347 0.0 71.12441588785046Z" stroke="#323232" stroke-width="2.0" stroke-dasharray="2.0 3.0" opacity="1.0" fill="#ffe6cc"/><g id="ProcessOnG1032" transform="matrix(1.0,0.0,0.0,1.0,0.0,26.578271028037385)"><text id="ProcessOnText1033" fill="#000000" font-weight="bold" font-style="normal" text-decoration="none" font-family="微软雅黑" text-anchor="middle" font-size="16" x="166.2043010752688" y="16.4">Task (s)</text></g></g><g id="ProcessOnG1034" transform="matrix(1.0,0.0,0.0,1.0,307.3467741935483,702.2056074766355)" opacity="1.0"><path id="ProcessOnPath1035" d="M0.0 0.0L535.0537634408603 0.0L535.0537634408603 46.44859813084112L0.0 46.44859813084112Z" stroke="#323232" stroke-width="0.0" stroke-dasharray="0.0 0.0" opacity="1.0" fill="none"/><g id="ProcessOnG1036" transform="matrix(1.0,0.0,0.0,1.0,0.0,13.22429906542056)"><text id="ProcessOnText1037" fill="#000000" font-weight="bold" font-style="normal" text-decoration="none" font-family="微软雅黑" text-anchor="middle" font-size="16" x="266.52688172043014" y="16.4">Executor</text></g></g><g id="ProcessOnG1038" transform="matrix(1.0,0.0,0.0,1.0,307.3467741935483,642.9836448598131)" opacity="1.0"><path id="ProcessOnPath1039" d="M0.0 0.0L535.0537634408603 0.0L535.0537634408603 46.44859813084112L0.0 46.44859813084112Z" stroke="#323232" stroke-width="0.0" stroke-dasharray="0.0 0.0" opacity="1.0" fill="none"/><g id="ProcessOnG1040" transform="matrix(1.0,0.0,0.0,1.0,0.0,13.22429906542056)"><text id="ProcessOnText1041" fill="#000000" font-weight="bold" font-style="normal" text-decoration="none" font-family="微软雅黑" text-anchor="middle" font-size="16" x="266.52688172043014" y="16.4">Mesos Agent</text></g></g><g id="ProcessOnG1042"><path id="ProcessOnPath1043" d="M295.3892331475019 629.093832687507L563.75 354.0" stroke="#323232" stroke-width="2.0" stroke-dasharray="2.0 3.0" fill="none" marker-start="url(#ProcessOnMarker1044)"/></g><g id="ProcessOnG1046" transform="matrix(0.6946583704589966,-0.7193398003386517,0.7193398003386517,0.6946583704589966,281.0061432467561,594.9745039914638)" opacity="1.0"><path id="ProcessOnPath1047" d="M0.0 0.0L317.4359006413698 0.0L317.4359006413698 45.15856243910446L0.0 45.15856243910446Z" stroke="#323232" stroke-width="0.0" stroke-dasharray="none" opacity="1.0" fill="none"/><g id="ProcessOnG1048" transform="matrix(1.0,0.0,0.0,1.0,0.0,14.454281219552229)"><text id="ProcessOnText1049" fill="#000000" font-weight="normal" font-style="normal" text-decoration="none" font-family="微软雅黑" text-anchor="middle" font-size="13" x="157.7179503206849" y="13.325">停止接收 slave 心跳，等待在配置的超时时间内重连</text></g></g><g id="ProcessOnG1050"><path id="ProcessOnPath1051" d="M253.75 317.5L220.75 317.5L220.75 246.5L238.5139320225002 246.5" stroke="#323232" stroke-width="2.0" stroke-dasharray="2.0 3.0" fill="none" marker-end="url(#ProcessOnMarker1052)"/></g><g id="ProcessOnG1054" transform="matrix(-1.8369701987210297E-16,-1.0,1.0,-1.8369701987210297E-16,177.24999999999997,316.5)" opacity="1.0"><path id="ProcessOnPath1055" d="M0.0 0.0L208.49999999999997 0.0L208.49999999999997 42.750000000000114L0.0 42.750000000000114Z" stroke="#323232" stroke-width="0.0" stroke-dasharray="none" opacity="1.0" fill="none"/><g id="ProcessOnG1056" transform="matrix(1.0,0.0,0.0,1.0,0.0,5.125000000000057)"><text id="ProcessOnText1057" fill="#000000" font-weight="normal" font-style="normal" text-decoration="none" font-family="微软雅黑" text-anchor="middle" font-size="13" x="103.24999999999999" y="13.325">如果超时，认为 slave 已死，并从 </text><text id="ProcessOnText1058" fill="#000000" font-weight="normal" font-style="normal" text-decoration="none" font-family="微软雅黑" text-anchor="middle" font-size="13" x="103.24999999999999" y="29.575">registry 中删除 slave 注册信息</text></g></g><g id="ProcessOnG1059"><path id="ProcessOnPath1060" d="M653.8512135318082 365.5823915437244L429.64878646819176 627.9176084562756" stroke="#ccccff" stroke-width="2.0" stroke-dasharray="10.0 4.0 2.0 4.0" fill="none" marker-start="url(#ProcessOnMarker1061)" marker-end="url(#ProcessOnMarker1063)"/></g><g id="ProcessOnG1065" transform="matrix(0.6427876096865393,-0.7660444431189781,0.7660444431189781,0.6427876096865393,414.5899208426046,606.872901447558)" opacity="1.0"><path id="ProcessOnPath1066" d="M0.0 0.0L264.0 0.0L264.0 25.0L0.0 25.0Z" stroke="#323232" stroke-width="0.0" stroke-dasharray="none" opacity="1.0" fill="none"/><g id="ProcessOnG1067" transform="matrix(1.0,0.0,0.0,1.0,0.0,4.375)"><text id="ProcessOnText1068" fill="#33001a" font-weight="normal" font-style="normal" text-decoration="none" font-family="微软雅黑" text-anchor="middle" font-size="13" x="131.0" y="13.325">如果在超时时间内重新连上，则能继续工作</text></g></g><g id="ProcessOnG1069" transform="matrix(1.0,0.0,0.0,1.0,253.75,108.0)" opacity="1.0"><path id="ProcessOnPath1070" d="M0.0 0.0L620.0 0.0L620.0 49.0L0.0 49.0Z" stroke="#323232" stroke-width="2.0" stroke-dasharray="none" opacity="1.0" fill="#99ccff"/><g id="ProcessOnG1071" transform="matrix(1.0,0.0,0.0,1.0,10.0,13.875)"><text id="ProcessOnText1072" fill="#000000" font-weight="bold" font-style="normal" text-decoration="none" font-family="微软雅黑" text-anchor="middle" font-size="17" x="299.0" y="17.425">ZooKeeper quorum</text></g></g><g id="ProcessOnG1073"><path id="ProcessOnPath1074" d="M873.75 317.5L916.75 317.5L916.75 189.5L888.9860679774998 189.5" stroke="#323232" stroke-width="2.0" stroke-dasharray="2.0 3.0" fill="none" marker-end="url(#ProcessOnMarker1075)"/></g><g id="ProcessOnG1077" transform="matrix(-1.8369701987210297E-16,-1.0,1.0,-1.8369701987210297E-16,919.7271505376344,321.9999999999999)" opacity="1.0"><path id="ProcessOnPath1078" d="M0.0 0.0L223.5 0.0L223.5 38.74999999999994L0.0 38.74999999999994Z" stroke="#323232" stroke-width="0.0" stroke-dasharray="none" opacity="1.0" fill="none"/><g id="ProcessOnG1079" transform="matrix(1.0,0.0,0.0,1.0,0.0,3.1249999999999716)"><text id="ProcessOnText1080" fill="#000000" font-weight="normal" font-style="normal" text-decoration="none" font-family="微软雅黑" text-anchor="middle" font-size="13" x="110.75" y="13.325">通知 Scheduler 该 slave 已死，停止</text><text id="ProcessOnText1081" fill="#000000" font-weight="normal" font-style="normal" text-decoration="none" font-family="微软雅黑" text-anchor="middle" font-size="13" x="110.75" y="29.575">向其调度任务</text></g></g><g id="ProcessOnG1082"><path id="ProcessOnPath1083" d="M775.4076171698013 366.0356823848506L562.75 640.0" stroke="#323232" stroke-width="2.0" stroke-dasharray="2.0 3.0" fill="none" marker-start="url(#ProcessOnMarker1084)"/></g><g id="ProcessOnG1086" transform="matrix(0.6156614753256571,-0.7880107536067229,0.7880107536067229,0.6156614753256571,550.4410194612889,611.1872326023066)" opacity="1.0"><path id="ProcessOnPath1087" d="M0.0 0.0L229.9298985109191 0.0L229.9298985109191 21.964991277417766L0.0 21.964991277417766Z" stroke="#323232" stroke-width="0.0" stroke-dasharray="none" opacity="1.0" fill="none"/><g id="ProcessOnG1088" transform="matrix(1.0,0.0,0.0,1.0,0.0,2.8574956387088832)"><text id="ProcessOnText1089" fill="#000000" font-weight="normal" font-style="normal" text-decoration="none" font-family="微软雅黑" text-anchor="middle" font-size="13" x="113.96494925545954" y="13.325">超时后 slave 恢复正常重连 master</text></g></g><g id="ProcessOnG1090" transform="matrix(0.6946583704589966,-0.7193398003386517,0.7193398003386517,0.6946583704589966,278.61001829202354,612.2468142987966)" opacity="1.0"><path id="ProcessOnPath1091" d="M0.0 0.0L20.0 0.0L20.0 20.0L0.0 20.0Z" stroke="#323232" stroke-width="0.0" stroke-dasharray="none" opacity="1.0" fill="url(#ProcessOnPattern1092)"/></g><g id="ProcessOnG1094" transform="matrix(-1.8369701987210297E-16,-1.0,1.0,-1.8369701987210297E-16,187.25,337.5)" opacity="1.0"><path id="ProcessOnPath1095" d="M0.0 0.0L20.0 0.0L20.0 20.0L0.0 20.0Z" stroke="#323232" stroke-width="0.0" stroke-dasharray="none" opacity="1.0" fill="url(#ProcessOnPattern1096)"/></g><g id="ProcessOnG1098" transform="matrix(0.6156614753256571,-0.7880107536067229,0.7880107536067229,0.6156614753256571,542.7132777106762,621.7234927828107)" opacity="1.0"><path id="ProcessOnPath1099" d="M0.0 0.0L20.0 0.0L20.0 20.0L0.0 20.0Z" stroke="#323232" stroke-width="0.0" stroke-dasharray="none" opacity="1.0" fill="url(#ProcessOnPattern1100)"/></g><g id="ProcessOnG1102" transform="matrix(1.0,0.0,0.0,1.0,849.9005376344085,909.0)" opacity="1.0"><path id="ProcessOnPath1103" d="M0.0 0.0L103.84946236559142 0.0L103.84946236559142 25.0L0.0 25.0Z" stroke="#323232" stroke-width="0.0" stroke-dasharray="none" opacity="1.0" fill="none"/><g id="ProcessOnG1104" transform="matrix(1.0,0.0,0.0,1.0,0.0,4.375)"><text id="ProcessOnText1105" fill="#000000" font-weight="normal" font-style="normal" text-decoration="none" font-family="微软雅黑" text-anchor="middle" font-size="13" x="50.92473118279571" y="13.325">Tangjiaxing</text></g></g><g id="ProcessOnG1106" transform="matrix(-1.8369701987210297E-16,-1.0,1.0,-1.8369701987210297E-16,919.75,343.0)" opacity="1.0"><path id="ProcessOnPath1107" d="M0.0 0.0L20.0 0.0L20.0 20.0L0.0 20.0Z" stroke="#323232" stroke-width="0.0" stroke-dasharray="none" opacity="1.0" fill="url(#ProcessOnPattern1108)"/></g><g id="ProcessOnG1110"><path id="ProcessOnPath1111" d="M848.0 354.0L636.3160556910627 627.9439279292129" stroke="#323232" stroke-width="2.0" stroke-dasharray="2.0 3.0" fill="none" marker-end="url(#ProcessOnMarker1112)"/></g><g id="ProcessOnG1114" transform="matrix(0.6156614753256571,-0.7880107536067229,0.7880107536067229,0.6156614753256571,607.120872961901,616.8165593281973)" opacity="1.0"><path id="ProcessOnPath1115" d="M0.0 0.0L20.0 0.0L20.0 20.0L0.0 20.0Z" stroke="#323232" stroke-width="0.0" stroke-dasharray="none" opacity="1.0" fill="url(#ProcessOnPattern1116)"/></g><g id="ProcessOnG1118" transform="matrix(0.6156614753256571,-0.7880107536067229,0.7880107536067229,0.6156614753256571,619.4293674684201,601.1311096069289)" opacity="1.0"><path id="ProcessOnPath1119" d="M0.0 0.0L183.0 0.0L183.0 27.0L0.0 27.0Z" stroke="#323232" stroke-width="0.0" stroke-dasharray="none" opacity="1.0" fill="none"/><g id="ProcessOnG1120" transform="matrix(1.0,0.0,0.0,1.0,0.0,5.375)"><text id="ProcessOnText1121" fill="#000000" font-weight="normal" font-style="normal" text-decoration="none" font-family="微软雅黑" text-anchor="middle" font-size="13" x="90.5" y="13.325">发出 kill 让 slave 将自身杀死</text></g></g><g id="ProcessOnG1122"><path id="ProcessOnPath1123" d="M862.0716924004378 365.6816653114197L654.0 640.0" stroke="#323232" stroke-width="2.0" stroke-dasharray="2.0 3.0" fill="none" marker-start="url(#ProcessOnMarker1124)"/></g><g id="ProcessOnG1126" transform="matrix(0.573576436351046,-0.8191520442889918,0.8191520442889918,0.573576436351046,685.8471893767397,617.5488226247661)" opacity="1.0"><path id="ProcessOnPath1127" d="M0.0 0.0L20.0 0.0L20.0 20.0L0.0 20.0Z" stroke="#323232" stroke-width="0.0" stroke-dasharray="none" opacity="1.0" fill="url(#ProcessOnPattern1128)"/></g><g id="ProcessOnG1130" transform="matrix(0.573576436351046,-0.8191520442889918,0.8191520442889918,0.573576436351046,699.7331420330535,594.3109574533808)" opacity="1.0"><path id="ProcessOnPath1131" d="M0.0 0.0L203.0 0.0L203.0 23.90797077617964L0.0 23.90797077617964Z" stroke="#323232" stroke-width="0.0" stroke-dasharray="none" opacity="1.0" fill="none"/><g id="ProcessOnG1132" transform="matrix(1.0,0.0,0.0,1.0,0.0,3.8289853880898193)"><text id="ProcessOnText1133" fill="#000000" font-weight="normal" font-style="normal" text-decoration="none" font-family="微软雅黑" text-anchor="middle" font-size="13" x="100.5" y="13.325">以新的 slave 重新向 master 注册</text></g></g></g></g></svg>